<svg width="2805" height="2338" viewBox="0 0 2805 2338" fill="none" xmlns="http://www.w3.org/2000/svg">
<path d="M541.555 677.987L742.136 637.863L224.29 851.395L3.26645 891.057L541.555 677.987Z" fill="#F1F1E6"/>
<path d="M221.625 852.561L743.731 637.402L884.691 1434.8L375.69 1710.91L221.625 852.561Z" fill="#3D4B68"/>
<path d="M5.82145 889.674L223.535 850.472L378.024 1711.19L153.17 1744.26L5.82145 889.674Z" fill="#2D3B57"/>
<path d="M2262.45 708.987L2061.87 668.863L2579.71 882.395L2800.74 922.057L2262.45 708.987Z" fill="#F1F1E6"/>
<path d="M2582.38 883.561L2060.27 668.402L1919.31 1465.8L2428.31 1741.91L2582.38 883.561Z" fill="#3D4B68"/>
<path d="M2798.18 920.674L2580.47 881.472L2425.98 1742.19L2650.83 1775.26L2798.18 920.674Z" fill="#2D3B57"/>
<path d="M436.004 448.5L1399.5 0L2346 448.5V1862.5L1399.5 2337.5L436.004 1862.5V448.5Z" fill="#1F2A41"/>
<path d="M491.004 490.67L1399.01 68L2291 490.67V1823.24L1399.01 2270.88L491.004 1823.24V490.67Z" fill="#F1F1E6"/>
<path d="M812.44 1420V1348.7H798.49V1407.6H709.21V1299.1H789.19V1286.7H709.21V1184.4H798.49V1243.3H812.44V1172H613.11V1184.4H637.91V1407.6H613.11V1420H812.44ZM1063.74 1407.6V1420H996.474L974.774 1397.99L952.764 1420H875.264L846.434 1391.17V1262.83L875.264 1234H950.904L967.644 1250.74V1159.6H942.844V1147.2H1010.11L1038.94 1176.03V1407.6H1063.74ZM967.644 1385.9V1269.96L944.084 1246.4H919.284V1407.6H945.944L967.644 1385.9ZM1307.01 1407.6V1420H1239.74L1218.04 1397.99L1196.03 1420H1126.59L1097.76 1391.17V1246.4H1072.96V1234H1138.68L1167.51 1262.83V1407.6H1189.21L1210.91 1385.9V1234H1253.38L1282.21 1262.83V1407.6H1307.01ZM1582.89 1172H1465.09V1184.4H1486.79V1286.7H1415.49V1184.4H1437.19V1172H1319.39V1184.4H1344.19V1407.6H1319.39V1420H1437.19V1407.6H1415.49V1299.1H1486.79V1407.6H1465.09V1420H1582.89V1407.6H1558.09V1184.4H1582.89V1172ZM1633.31 1420H1701.2L1720.11 1401.09L1738.71 1420H1809.08V1407.6H1784.28V1259.73L1758.55 1234H1641.06L1615.33 1259.73V1296H1680.43V1246.4H1712.98V1320.8H1633.31L1607.58 1346.53V1394.27L1633.31 1420ZM1680.43 1333.2H1712.98V1389L1694.38 1407.6H1680.43V1333.2ZM1931.68 1296V1246.4H1899.13V1407.6H1958.03L1982.52 1383.11L1992.13 1392.72L1964.85 1420H1856.66L1827.83 1391.17V1262.83L1856.66 1234H1971.05L1993.68 1256.63V1296H1931.68ZM2073.49 1147.2L2102.32 1176.03V1420H2059.85L2031.02 1391.17V1159.6H2006.22V1147.2H2073.49ZM2239.34 1407.6V1420H2151.92L2110.07 1326.69V1314.6L2180.13 1234H2215.78V1246.4H2187.26L2128.05 1314.6H2182.3L2223.84 1407.6H2239.34Z" fill="#1F2A41"/>
<path d="M669.84 1538.71H646.09V1558.87H673.785V1565H638.863V1508.12H673.434V1514.3H646.09V1532.58H669.84V1538.71ZM722.223 1565H714.879L692.809 1522.5L692.691 1565H685.387V1508.12H692.73L714.801 1550.55L714.918 1508.12H722.223V1565ZM770.309 1565H763.473V1538.71H740.152V1565H733.355V1508.12H740.152V1532.58H763.473V1508.12H770.309V1565ZM809.84 1550.27H790.855L786.285 1565H779.059L797.418 1508.12H803.473L821.52 1565H814.332L809.84 1550.27ZM792.809 1543.98H807.926L800.426 1519.3L792.809 1543.98ZM866.363 1565H859.02L836.949 1522.5L836.832 1565H829.527V1508.12H836.871L858.941 1550.55L859.059 1508.12H866.363V1565ZM915.621 1547.89C915.283 1550.52 914.605 1552.94 913.59 1555.16C912.574 1557.34 911.246 1559.23 909.605 1560.82C907.991 1562.38 906.064 1563.61 903.824 1564.49C901.611 1565.35 899.137 1565.78 896.402 1565.78C894.059 1565.78 891.923 1565.46 889.996 1564.8C888.095 1564.13 886.389 1563.2 884.879 1562.03C883.395 1560.86 882.105 1559.48 881.012 1557.89C879.944 1556.3 879.046 1554.57 878.316 1552.7C877.613 1550.82 877.079 1548.85 876.715 1546.8C876.376 1544.74 876.194 1542.66 876.168 1540.55V1532.62C876.194 1530.51 876.376 1528.42 876.715 1526.37C877.079 1524.31 877.613 1522.34 878.316 1520.47C879.046 1518.59 879.944 1516.86 881.012 1515.27C882.105 1513.66 883.395 1512.27 884.879 1511.09C886.389 1509.92 888.095 1509.01 889.996 1508.36C891.897 1507.68 894.033 1507.34 896.402 1507.34C899.241 1507.34 901.78 1507.79 904.02 1508.67C906.259 1509.53 908.186 1510.77 909.801 1512.38C911.415 1513.97 912.704 1515.89 913.668 1518.12C914.658 1520.36 915.309 1522.84 915.621 1525.55H908.395C908.16 1523.83 907.757 1522.23 907.184 1520.74C906.611 1519.26 905.842 1517.96 904.879 1516.84C903.915 1515.72 902.73 1514.84 901.324 1514.22C899.944 1513.57 898.303 1513.24 896.402 1513.24C894.684 1513.24 893.16 1513.53 891.832 1514.1C890.53 1514.65 889.397 1515.4 888.434 1516.37C887.496 1517.33 886.702 1518.45 886.051 1519.73C885.426 1521 884.918 1522.36 884.527 1523.79C884.137 1525.22 883.85 1526.69 883.668 1528.2C883.512 1529.69 883.434 1531.13 883.434 1532.54V1540.55C883.434 1541.95 883.512 1543.41 883.668 1544.92C883.85 1546.41 884.137 1547.88 884.527 1549.34C884.918 1550.77 885.426 1552.12 886.051 1553.4C886.676 1554.67 887.47 1555.81 888.434 1556.8C889.397 1557.76 890.53 1558.53 891.832 1559.1C893.134 1559.65 894.658 1559.92 896.402 1559.92C898.303 1559.92 899.944 1559.62 901.324 1559.02C902.73 1558.42 903.915 1557.59 904.879 1556.52C905.842 1555.43 906.611 1554.15 907.184 1552.7C907.757 1551.21 908.16 1549.61 908.395 1547.89H915.621ZM926.832 1508.12H961.207V1514.41H947.574V1558.75H961.207V1565H926.832V1558.75H940.152V1514.41H926.832V1508.12ZM1010.5 1565H1003.16L981.09 1522.5L980.973 1565H973.668V1508.12H981.012L1003.08 1550.55L1003.2 1508.12H1010.5V1565ZM1059.72 1557.54C1057.33 1560.35 1054.58 1562.43 1051.48 1563.79C1048.38 1565.14 1044.98 1565.81 1041.29 1565.78C1038.94 1565.76 1036.78 1565.4 1034.8 1564.73C1032.85 1564.02 1031.09 1563.07 1029.53 1561.88C1027.96 1560.65 1026.6 1559.22 1025.43 1557.58C1024.25 1555.94 1023.26 1554.17 1022.46 1552.27C1021.68 1550.34 1021.08 1548.33 1020.66 1546.25C1020.27 1544.14 1020.06 1542.02 1020.04 1539.88V1533.28C1020.06 1531.17 1020.24 1529.08 1020.58 1526.99C1020.95 1524.88 1021.49 1522.86 1022.22 1520.94C1022.95 1519.01 1023.86 1517.23 1024.96 1515.59C1026.05 1513.92 1027.35 1512.49 1028.86 1511.29C1030.4 1510.07 1032.13 1509.1 1034.06 1508.4C1035.99 1507.7 1038.15 1507.34 1040.54 1507.34C1043.2 1507.34 1045.65 1507.76 1047.89 1508.59C1050.13 1509.4 1052.08 1510.57 1053.75 1512.11C1055.41 1513.62 1056.75 1515.46 1057.77 1517.62C1058.79 1519.75 1059.41 1522.15 1059.64 1524.8H1052.5C1052.21 1523.16 1051.77 1521.65 1051.17 1520.27C1050.57 1518.87 1049.77 1517.67 1048.79 1516.68C1047.82 1515.69 1046.66 1514.92 1045.31 1514.38C1043.95 1513.8 1042.38 1513.52 1040.58 1513.52C1038.86 1513.52 1037.34 1513.82 1036.01 1514.41C1034.68 1514.99 1033.52 1515.77 1032.54 1516.76C1031.55 1517.75 1030.73 1518.91 1030.07 1520.23C1029.42 1521.54 1028.89 1522.92 1028.47 1524.38C1028.06 1525.83 1027.76 1527.32 1027.57 1528.83C1027.39 1530.34 1027.3 1531.8 1027.3 1533.2V1539.88C1027.33 1541.32 1027.44 1542.8 1027.65 1544.34C1027.89 1545.85 1028.24 1547.33 1028.71 1548.79C1029.18 1550.25 1029.77 1551.63 1030.5 1552.93C1031.23 1554.23 1032.11 1555.38 1033.12 1556.37C1034.16 1557.36 1035.36 1558.15 1036.71 1558.75C1038.07 1559.32 1039.61 1559.62 1041.32 1559.65C1042.31 1559.67 1043.34 1559.64 1044.41 1559.53C1045.5 1559.43 1046.56 1559.22 1047.57 1558.91C1048.59 1558.59 1049.54 1558.18 1050.43 1557.66C1051.31 1557.11 1052.05 1556.41 1052.65 1555.55L1052.73 1542.77H1041.17V1536.68H1059.61L1059.72 1557.54ZM1156.52 1539.1C1156.49 1541.21 1156.31 1543.33 1155.97 1545.47C1155.63 1547.6 1155.11 1549.66 1154.41 1551.64C1153.73 1553.62 1152.85 1555.48 1151.75 1557.23C1150.69 1558.95 1149.4 1560.44 1147.89 1561.72L1157.69 1569.88L1152.73 1574.61L1141.48 1565.08C1139.87 1565.55 1138.12 1565.78 1136.25 1565.78C1133.82 1565.78 1131.65 1565.42 1129.72 1564.69C1127.8 1563.93 1126.08 1562.92 1124.57 1561.64C1123.08 1560.36 1121.79 1558.87 1120.7 1557.15C1119.61 1555.4 1118.71 1553.54 1118 1551.56C1117.3 1549.58 1116.78 1547.54 1116.44 1545.43C1116.1 1543.29 1115.92 1541.18 1115.89 1539.1V1534.1C1115.92 1532.02 1116.1 1529.91 1116.44 1527.77C1116.78 1525.64 1117.3 1523.58 1118 1521.6C1118.71 1519.62 1119.59 1517.77 1120.66 1516.05C1121.73 1514.31 1123 1512.8 1124.49 1511.52C1126 1510.22 1127.72 1509.21 1129.64 1508.48C1131.6 1507.72 1133.79 1507.34 1136.21 1507.34C1138.63 1507.34 1140.8 1507.72 1142.73 1508.48C1144.68 1509.21 1146.4 1510.21 1147.89 1511.48C1149.4 1512.76 1150.69 1514.27 1151.75 1516.02C1152.85 1517.73 1153.73 1519.58 1154.41 1521.56C1155.11 1523.54 1155.63 1525.61 1155.97 1527.77C1156.31 1529.91 1156.49 1532.02 1156.52 1534.1V1539.1ZM1149.33 1534.02C1149.31 1532.59 1149.21 1531.11 1149.06 1529.57C1148.93 1528.01 1148.67 1526.48 1148.28 1525C1147.91 1523.49 1147.4 1522.06 1146.75 1520.7C1146.13 1519.35 1145.33 1518.16 1144.37 1517.15C1143.41 1516.11 1142.25 1515.29 1140.89 1514.69C1139.57 1514.09 1138 1513.79 1136.21 1513.79C1134.44 1513.79 1132.89 1514.1 1131.56 1514.73C1130.23 1515.33 1129.08 1516.15 1128.12 1517.19C1127.16 1518.2 1126.35 1519.39 1125.7 1520.74C1125.07 1522.1 1124.57 1523.53 1124.18 1525.04C1123.79 1526.52 1123.5 1528.05 1123.32 1529.61C1123.16 1531.15 1123.08 1532.62 1123.08 1534.02V1539.1C1123.08 1540.51 1123.16 1541.99 1123.32 1543.55C1123.5 1545.09 1123.79 1546.61 1124.18 1548.12C1124.57 1549.64 1125.07 1551.07 1125.7 1552.42C1126.35 1553.78 1127.16 1554.97 1128.12 1556.02C1129.08 1557.06 1130.23 1557.89 1131.56 1558.52C1132.91 1559.11 1134.48 1559.41 1136.25 1559.41C1138.04 1559.41 1139.61 1559.11 1140.93 1558.52C1142.29 1557.89 1143.45 1557.07 1144.41 1556.05C1145.37 1555.01 1146.17 1553.82 1146.79 1552.46C1147.42 1551.11 1147.91 1549.67 1148.28 1548.16C1148.67 1546.65 1148.93 1545.13 1149.06 1543.59C1149.21 1542.03 1149.31 1540.53 1149.33 1539.1V1534.02ZM1202.77 1508.12L1202.85 1546.64C1202.8 1549.3 1202.31 1551.78 1201.4 1554.1C1200.49 1556.42 1199.21 1558.45 1197.57 1560.2C1195.93 1561.91 1193.98 1563.28 1191.71 1564.3C1189.45 1565.29 1186.96 1565.78 1184.25 1565.78C1181.49 1565.78 1178.98 1565.29 1176.71 1564.3C1174.45 1563.31 1172.51 1561.95 1170.89 1560.23C1169.28 1558.49 1168.02 1556.46 1167.11 1554.14C1166.19 1551.8 1165.73 1549.3 1165.7 1546.64L1165.78 1508.12H1172.65L1172.81 1546.64C1172.83 1548.33 1173.1 1549.96 1173.59 1551.52C1174.11 1553.09 1174.84 1554.47 1175.78 1555.66C1176.74 1556.86 1177.93 1557.83 1179.33 1558.55C1180.76 1559.28 1182.4 1559.65 1184.25 1559.65C1186.1 1559.65 1187.73 1559.3 1189.14 1558.59C1190.54 1557.86 1191.71 1556.9 1192.65 1555.7C1193.62 1554.48 1194.35 1553.09 1194.84 1551.52C1195.33 1549.96 1195.61 1548.33 1195.66 1546.64L1195.78 1508.12H1202.77ZM1242.26 1550.27H1223.28L1218.71 1565H1211.48L1229.84 1508.12H1235.89L1253.94 1565H1246.75L1242.26 1550.27ZM1225.23 1543.98H1240.35L1232.85 1519.3L1225.23 1543.98ZM1271.32 1558.87H1299.14V1565H1264.1V1508.12H1271.32V1558.87ZM1311.21 1508.12H1345.58V1514.41H1331.95V1558.75H1345.58V1565H1311.21V1558.75H1324.53V1514.41H1311.21V1508.12ZM1397.61 1514.3H1380.04V1565H1373V1514.3H1355.43V1508.12H1397.61V1514.3ZM1424.06 1536.68L1437.03 1508.12H1445.23L1427.54 1543.79L1427.42 1565H1420.7L1420.58 1543.79L1402.89 1508.12H1411.13L1424.06 1536.68ZM1534.68 1538.71H1510.93V1558.87H1538.63V1565H1503.71V1508.12H1538.28V1514.3H1510.93V1532.58H1534.68V1538.71ZM1550.7 1565V1508.12H1563.86C1567.82 1508.18 1571.35 1508.85 1574.45 1510.16C1577.57 1511.43 1580.2 1513.23 1582.34 1515.55C1584.5 1517.84 1586.14 1520.6 1587.26 1523.83C1588.41 1527.03 1588.99 1530.59 1589.02 1534.49V1538.67C1588.99 1542.58 1588.41 1546.15 1587.26 1549.38C1586.14 1552.58 1584.5 1555.34 1582.34 1557.66C1580.2 1559.95 1577.57 1561.74 1574.45 1563.05C1571.35 1564.32 1567.82 1564.97 1563.86 1565H1550.7ZM1558.04 1514.06V1559.1H1563.86C1566.94 1559.08 1569.59 1558.54 1571.83 1557.5C1574.07 1556.43 1575.92 1554.99 1577.38 1553.16C1578.86 1551.34 1579.96 1549.19 1580.66 1546.72C1581.39 1544.24 1581.77 1541.56 1581.79 1538.67V1534.41C1581.77 1531.52 1581.39 1528.85 1580.66 1526.41C1579.93 1523.93 1578.84 1521.8 1577.38 1520C1575.92 1518.18 1574.07 1516.74 1571.83 1515.7C1569.59 1514.66 1566.94 1514.11 1563.86 1514.06H1558.04ZM1635.19 1508.12L1635.27 1546.64C1635.22 1549.3 1634.74 1551.78 1633.82 1554.1C1632.91 1556.42 1631.64 1558.45 1630 1560.2C1628.36 1561.91 1626.4 1563.28 1624.14 1564.3C1621.87 1565.29 1619.38 1565.78 1616.68 1565.78C1613.92 1565.78 1611.4 1565.29 1609.14 1564.3C1606.87 1563.31 1604.93 1561.95 1603.32 1560.23C1601.7 1558.49 1600.44 1556.46 1599.53 1554.14C1598.62 1551.8 1598.15 1549.3 1598.12 1546.64L1598.2 1508.12H1605.07L1605.23 1546.64C1605.26 1548.33 1605.52 1549.96 1606.01 1551.52C1606.53 1553.09 1607.26 1554.47 1608.2 1555.66C1609.16 1556.86 1610.35 1557.83 1611.75 1558.55C1613.19 1559.28 1614.83 1559.65 1616.68 1559.65C1618.52 1559.65 1620.15 1559.3 1621.56 1558.59C1622.96 1557.86 1624.14 1556.9 1625.07 1555.7C1626.04 1554.48 1626.77 1553.09 1627.26 1551.52C1627.76 1549.96 1628.03 1548.33 1628.08 1546.64L1628.2 1508.12H1635.19ZM1684.37 1547.89C1684.03 1550.52 1683.36 1552.94 1682.34 1555.16C1681.32 1557.34 1680 1559.23 1678.36 1560.82C1676.74 1562.38 1674.81 1563.61 1672.57 1564.49C1670.36 1565.35 1667.89 1565.78 1665.15 1565.78C1662.81 1565.78 1660.67 1565.46 1658.75 1564.8C1656.85 1564.13 1655.14 1563.2 1653.63 1562.03C1652.14 1560.86 1650.86 1559.48 1649.76 1557.89C1648.69 1556.3 1647.8 1554.57 1647.07 1552.7C1646.36 1550.82 1645.83 1548.85 1645.46 1546.8C1645.13 1544.74 1644.94 1542.66 1644.92 1540.55V1532.62C1644.94 1530.51 1645.13 1528.42 1645.46 1526.37C1645.83 1524.31 1646.36 1522.34 1647.07 1520.47C1647.8 1518.59 1648.69 1516.86 1649.76 1515.27C1650.86 1513.66 1652.14 1512.27 1653.63 1511.09C1655.14 1509.92 1656.85 1509.01 1658.75 1508.36C1660.65 1507.68 1662.78 1507.34 1665.15 1507.34C1667.99 1507.34 1670.53 1507.79 1672.77 1508.67C1675.01 1509.53 1676.94 1510.77 1678.55 1512.38C1680.17 1513.97 1681.45 1515.89 1682.42 1518.12C1683.41 1520.36 1684.06 1522.84 1684.37 1525.55H1677.14C1676.91 1523.83 1676.51 1522.23 1675.93 1520.74C1675.36 1519.26 1674.59 1517.96 1673.63 1516.84C1672.67 1515.72 1671.48 1514.84 1670.07 1514.22C1668.69 1513.57 1667.05 1513.24 1665.15 1513.24C1663.43 1513.24 1661.91 1513.53 1660.58 1514.1C1659.28 1514.65 1658.15 1515.4 1657.18 1516.37C1656.25 1517.33 1655.45 1518.45 1654.8 1519.73C1654.18 1521 1653.67 1522.36 1653.28 1523.79C1652.89 1525.22 1652.6 1526.69 1652.42 1528.2C1652.26 1529.69 1652.18 1531.13 1652.18 1532.54V1540.55C1652.18 1541.95 1652.26 1543.41 1652.42 1544.92C1652.6 1546.41 1652.89 1547.88 1653.28 1549.34C1653.67 1550.77 1654.18 1552.12 1654.8 1553.4C1655.43 1554.67 1656.22 1555.81 1657.18 1556.8C1658.15 1557.76 1659.28 1558.53 1660.58 1559.1C1661.88 1559.65 1663.41 1559.92 1665.15 1559.92C1667.05 1559.92 1668.69 1559.62 1670.07 1559.02C1671.48 1558.42 1672.67 1557.59 1673.63 1556.52C1674.59 1555.43 1675.36 1554.15 1675.93 1552.7C1676.51 1551.21 1676.91 1549.61 1677.14 1547.89H1684.37ZM1722.73 1550.27H1703.75L1699.18 1565H1691.95L1710.31 1508.12H1716.36L1734.41 1565H1727.22L1722.73 1550.27ZM1705.7 1543.98H1720.82L1713.32 1519.3L1705.7 1543.98ZM1781.99 1514.3H1764.41V1565H1757.38V1514.3H1739.8V1508.12H1781.99V1514.3ZM1791.68 1508.12H1826.05V1514.41H1812.42V1558.75H1826.05V1565H1791.68V1558.75H1805V1514.41H1791.68V1508.12ZM1876.71 1539.84C1876.69 1541.88 1876.51 1543.93 1876.17 1546.02C1875.86 1548.07 1875.36 1550.07 1874.68 1551.99C1874.01 1553.92 1873.13 1555.72 1872.07 1557.38C1871.02 1559.05 1869.77 1560.51 1868.32 1561.76C1866.86 1563.01 1865.18 1564 1863.28 1564.73C1861.4 1565.43 1859.29 1565.78 1856.95 1565.78C1854.61 1565.78 1852.48 1565.43 1850.58 1564.73C1848.71 1564 1847.04 1563.01 1845.58 1561.76C1844.12 1560.51 1842.86 1559.05 1841.79 1557.38C1840.73 1555.69 1839.84 1553.88 1839.14 1551.95C1838.46 1550.03 1837.95 1548.03 1837.61 1545.98C1837.27 1543.92 1837.09 1541.88 1837.07 1539.84V1533.36C1837.09 1531.33 1837.26 1529.28 1837.57 1527.23C1837.91 1525.14 1838.42 1523.14 1839.1 1521.21C1839.8 1519.28 1840.67 1517.49 1841.71 1515.82C1842.78 1514.13 1844.05 1512.66 1845.5 1511.41C1846.96 1510.13 1848.63 1509.14 1850.5 1508.44C1852.4 1507.71 1854.53 1507.34 1856.87 1507.34C1859.21 1507.34 1861.34 1507.71 1863.24 1508.44C1865.14 1509.14 1866.82 1510.12 1868.28 1511.37C1869.74 1512.62 1870.99 1514.09 1872.03 1515.78C1873.1 1517.45 1873.97 1519.24 1874.64 1521.17C1875.35 1523.1 1875.86 1525.1 1876.17 1527.19C1876.51 1529.27 1876.69 1531.33 1876.71 1533.36V1539.84ZM1869.57 1533.28C1869.54 1531.93 1869.45 1530.52 1869.29 1529.06C1869.14 1527.58 1868.86 1526.12 1868.47 1524.69C1868.11 1523.23 1867.61 1521.85 1866.99 1520.55C1866.36 1519.22 1865.58 1518.06 1864.64 1517.07C1863.71 1516.05 1862.6 1515.26 1861.32 1514.69C1860.05 1514.09 1858.56 1513.79 1856.87 1513.79C1855.2 1513.79 1853.73 1514.09 1852.46 1514.69C1851.18 1515.29 1850.07 1516.09 1849.14 1517.11C1848.2 1518.1 1847.42 1519.26 1846.79 1520.59C1846.17 1521.89 1845.66 1523.27 1845.27 1524.73C1844.9 1526.16 1844.63 1527.62 1844.45 1529.1C1844.29 1530.56 1844.2 1531.95 1844.18 1533.28V1539.84C1844.2 1541.17 1844.29 1542.58 1844.45 1544.06C1844.63 1545.55 1844.92 1547.02 1845.31 1548.48C1845.7 1549.91 1846.21 1551.29 1846.83 1552.62C1847.46 1553.95 1848.24 1555.12 1849.18 1556.13C1850.11 1557.12 1851.22 1557.92 1852.5 1558.52C1853.77 1559.11 1855.26 1559.41 1856.95 1559.41C1858.64 1559.41 1860.13 1559.11 1861.4 1558.52C1862.7 1557.92 1863.81 1557.12 1864.72 1556.13C1865.66 1555.12 1866.43 1553.96 1867.03 1552.66C1867.65 1551.33 1868.15 1549.95 1868.51 1548.52C1868.9 1547.06 1869.16 1545.59 1869.29 1544.1C1869.45 1542.62 1869.54 1541.2 1869.57 1539.84V1533.28ZM1923.39 1565H1916.05L1893.98 1522.5L1893.86 1565H1886.56V1508.12H1893.9L1915.97 1550.55L1916.09 1508.12H1923.39V1565ZM2012.07 1549.61L2016.4 1508.12H2023.24L2016.32 1565H2008.94L2001.64 1522.15L1994.25 1565H1986.83L1979.92 1508.12H1986.79L1991.13 1549.61L1998.43 1508.12H2004.72L2012.07 1549.61ZM2031.91 1508.12H2066.29V1514.41H2052.65V1558.75H2066.29V1565H2031.91V1558.75H2045.23V1514.41H2031.91V1508.12ZM2118.32 1514.3H2100.74V1565H2093.71V1514.3H2076.13V1508.12H2118.32V1514.3ZM2163.67 1565H2156.83V1538.71H2133.51V1565H2126.71V1508.12H2133.51V1532.58H2156.83V1508.12H2163.67V1565ZM893.121 1608.3H875.543V1659H868.512V1608.3H850.934V1602.12H893.121V1608.3ZM934.098 1632.71H910.348V1652.87H938.043V1659H903.121V1602.12H937.691V1608.3H910.348V1626.58H934.098V1632.71ZM987.691 1641.89C987.353 1644.52 986.676 1646.94 985.66 1649.16C984.645 1651.34 983.316 1653.23 981.676 1654.82C980.061 1656.38 978.134 1657.61 975.895 1658.49C973.681 1659.35 971.207 1659.78 968.473 1659.78C966.129 1659.78 963.993 1659.46 962.066 1658.8C960.165 1658.13 958.46 1657.2 956.949 1656.03C955.465 1654.86 954.176 1653.48 953.082 1651.89C952.014 1650.3 951.116 1648.57 950.387 1646.7C949.684 1644.82 949.15 1642.85 948.785 1640.8C948.447 1638.74 948.264 1636.66 948.238 1634.55V1626.62C948.264 1624.51 948.447 1622.42 948.785 1620.37C949.15 1618.31 949.684 1616.34 950.387 1614.47C951.116 1612.59 952.014 1610.86 953.082 1609.27C954.176 1607.66 955.465 1606.27 956.949 1605.09C958.46 1603.92 960.165 1603.01 962.066 1602.36C963.967 1601.68 966.103 1601.34 968.473 1601.34C971.311 1601.34 973.85 1601.79 976.09 1602.67C978.329 1603.53 980.257 1604.77 981.871 1606.38C983.486 1607.97 984.775 1609.89 985.738 1612.12C986.728 1614.36 987.379 1616.84 987.691 1619.55H980.465C980.23 1617.83 979.827 1616.23 979.254 1614.74C978.681 1613.26 977.913 1611.96 976.949 1610.84C975.986 1609.72 974.801 1608.84 973.395 1608.22C972.014 1607.57 970.374 1607.24 968.473 1607.24C966.754 1607.24 965.23 1607.53 963.902 1608.1C962.6 1608.65 961.467 1609.4 960.504 1610.37C959.566 1611.33 958.772 1612.45 958.121 1613.73C957.496 1615 956.988 1616.36 956.598 1617.79C956.207 1619.22 955.921 1620.69 955.738 1622.2C955.582 1623.69 955.504 1625.13 955.504 1626.54V1634.55C955.504 1635.95 955.582 1637.41 955.738 1638.92C955.921 1640.41 956.207 1641.88 956.598 1643.34C956.988 1644.77 957.496 1646.12 958.121 1647.4C958.746 1648.67 959.54 1649.81 960.504 1650.8C961.467 1651.76 962.6 1652.53 963.902 1653.1C965.204 1653.65 966.728 1653.92 968.473 1653.92C970.374 1653.92 972.014 1653.62 973.395 1653.02C974.801 1652.42 975.986 1651.59 976.949 1650.52C977.913 1649.43 978.681 1648.15 979.254 1646.7C979.827 1645.21 980.23 1643.61 980.465 1641.89H987.691ZM1034.57 1659H1027.73V1632.71H1004.41V1659H997.613V1602.12H1004.41V1626.58H1027.73V1602.12H1034.57V1659ZM1082.57 1659H1075.23L1053.16 1616.5L1053.04 1659H1045.74V1602.12H1053.08L1075.15 1644.55L1075.27 1602.12H1082.57V1659ZM1131.99 1633.84C1131.96 1635.88 1131.78 1637.93 1131.44 1640.02C1131.13 1642.07 1130.63 1644.07 1129.96 1645.99C1129.28 1647.92 1128.41 1649.72 1127.34 1651.38C1126.3 1653.05 1125.05 1654.51 1123.59 1655.76C1122.13 1657.01 1120.45 1658 1118.55 1658.73C1116.68 1659.43 1114.57 1659.78 1112.22 1659.78C1109.88 1659.78 1107.76 1659.43 1105.86 1658.73C1103.98 1658 1102.31 1657.01 1100.86 1655.76C1099.4 1654.51 1098.13 1653.05 1097.07 1651.38C1096 1649.69 1095.11 1647.88 1094.41 1645.95C1093.73 1644.03 1093.23 1642.03 1092.89 1639.98C1092.55 1637.92 1092.37 1635.88 1092.34 1633.84V1627.36C1092.37 1625.33 1092.54 1623.28 1092.85 1621.23C1093.19 1619.14 1093.69 1617.14 1094.37 1615.21C1095.07 1613.28 1095.95 1611.49 1096.99 1609.82C1098.06 1608.13 1099.32 1606.66 1100.78 1605.41C1102.24 1604.13 1103.9 1603.14 1105.78 1602.44C1107.68 1601.71 1109.8 1601.34 1112.14 1601.34C1114.49 1601.34 1116.61 1601.71 1118.51 1602.44C1120.41 1603.14 1122.09 1604.12 1123.55 1605.37C1125.01 1606.62 1126.26 1608.09 1127.3 1609.78C1128.37 1611.45 1129.24 1613.24 1129.92 1615.17C1130.62 1617.1 1131.13 1619.1 1131.44 1621.19C1131.78 1623.27 1131.96 1625.33 1131.99 1627.36V1633.84ZM1124.84 1627.28C1124.81 1625.93 1124.72 1624.52 1124.57 1623.06C1124.41 1621.58 1124.14 1620.12 1123.75 1618.69C1123.38 1617.23 1122.89 1615.85 1122.26 1614.55C1121.64 1613.22 1120.86 1612.06 1119.92 1611.07C1118.98 1610.05 1117.87 1609.26 1116.6 1608.69C1115.32 1608.09 1113.84 1607.79 1112.14 1607.79C1110.48 1607.79 1109.01 1608.09 1107.73 1608.69C1106.45 1609.29 1105.35 1610.09 1104.41 1611.11C1103.47 1612.1 1102.69 1613.26 1102.07 1614.59C1101.44 1615.89 1100.93 1617.27 1100.54 1618.73C1100.18 1620.16 1099.9 1621.62 1099.72 1623.1C1099.57 1624.56 1099.48 1625.95 1099.45 1627.28V1633.84C1099.48 1635.17 1099.57 1636.58 1099.72 1638.06C1099.9 1639.55 1100.19 1641.02 1100.58 1642.48C1100.97 1643.91 1101.48 1645.29 1102.11 1646.62C1102.73 1647.95 1103.51 1649.12 1104.45 1650.13C1105.39 1651.12 1106.49 1651.92 1107.77 1652.52C1109.05 1653.11 1110.53 1653.41 1112.22 1653.41C1113.92 1653.41 1115.4 1653.11 1116.68 1652.52C1117.98 1651.92 1119.08 1651.12 1120 1650.13C1120.93 1649.12 1121.7 1647.96 1122.3 1646.66C1122.93 1645.33 1123.42 1643.95 1123.79 1642.52C1124.18 1641.06 1124.44 1639.59 1124.57 1638.1C1124.72 1636.62 1124.81 1635.2 1124.84 1633.84V1627.28ZM1151.21 1652.87H1179.02V1659H1143.98V1602.12H1151.21V1652.87ZM1228.08 1633.84C1228.06 1635.88 1227.87 1637.93 1227.54 1640.02C1227.22 1642.07 1226.73 1644.07 1226.05 1645.99C1225.37 1647.92 1224.5 1649.72 1223.43 1651.38C1222.39 1653.05 1221.14 1654.51 1219.68 1655.76C1218.23 1657.01 1216.55 1658 1214.64 1658.73C1212.77 1659.43 1210.66 1659.78 1208.32 1659.78C1205.97 1659.78 1203.85 1659.43 1201.95 1658.73C1200.07 1658 1198.41 1657.01 1196.95 1655.76C1195.49 1654.51 1194.23 1653.05 1193.16 1651.38C1192.09 1649.69 1191.21 1647.88 1190.5 1645.95C1189.83 1644.03 1189.32 1642.03 1188.98 1639.98C1188.64 1637.92 1188.46 1635.88 1188.43 1633.84V1627.36C1188.46 1625.33 1188.63 1623.28 1188.94 1621.23C1189.28 1619.14 1189.79 1617.14 1190.46 1615.21C1191.17 1613.28 1192.04 1611.49 1193.08 1609.82C1194.15 1608.13 1195.41 1606.66 1196.87 1605.41C1198.33 1604.13 1200 1603.14 1201.87 1602.44C1203.77 1601.71 1205.89 1601.34 1208.24 1601.34C1210.58 1601.34 1212.7 1601.71 1214.61 1602.44C1216.51 1603.14 1218.19 1604.12 1219.64 1605.37C1221.1 1606.62 1222.35 1608.09 1223.39 1609.78C1224.46 1611.45 1225.33 1613.24 1226.01 1615.17C1226.71 1617.1 1227.22 1619.1 1227.54 1621.19C1227.87 1623.27 1228.06 1625.33 1228.08 1627.36V1633.84ZM1220.93 1627.28C1220.91 1625.93 1220.82 1624.52 1220.66 1623.06C1220.5 1621.58 1220.23 1620.12 1219.84 1618.69C1219.48 1617.23 1218.98 1615.85 1218.36 1614.55C1217.73 1613.22 1216.95 1612.06 1216.01 1611.07C1215.07 1610.05 1213.97 1609.26 1212.69 1608.69C1211.42 1608.09 1209.93 1607.79 1208.24 1607.79C1206.57 1607.79 1205.1 1608.09 1203.82 1608.69C1202.55 1609.29 1201.44 1610.09 1200.5 1611.11C1199.57 1612.1 1198.79 1613.26 1198.16 1614.59C1197.54 1615.89 1197.03 1617.27 1196.64 1618.73C1196.27 1620.16 1196 1621.62 1195.82 1623.1C1195.66 1624.56 1195.57 1625.95 1195.54 1627.28V1633.84C1195.57 1635.17 1195.66 1636.58 1195.82 1638.06C1196 1639.55 1196.29 1641.02 1196.68 1642.48C1197.07 1643.91 1197.57 1645.29 1198.2 1646.62C1198.82 1647.95 1199.61 1649.12 1200.54 1650.13C1201.48 1651.12 1202.59 1651.92 1203.86 1652.52C1205.14 1653.11 1206.62 1653.41 1208.32 1653.41C1210.01 1653.41 1211.49 1653.11 1212.77 1652.52C1214.07 1651.92 1215.18 1651.12 1216.09 1650.13C1217.03 1649.12 1217.8 1647.96 1218.39 1646.66C1219.02 1645.33 1219.51 1643.95 1219.88 1642.52C1220.27 1641.06 1220.53 1639.59 1220.66 1638.1C1220.82 1636.62 1220.91 1635.2 1220.93 1633.84V1627.28ZM1275.93 1651.54C1273.54 1654.35 1270.79 1656.43 1267.69 1657.79C1264.59 1659.14 1261.19 1659.81 1257.5 1659.78C1255.15 1659.76 1252.99 1659.4 1251.01 1658.73C1249.06 1658.02 1247.3 1657.07 1245.74 1655.88C1244.18 1654.65 1242.81 1653.22 1241.64 1651.58C1240.46 1649.94 1239.48 1648.17 1238.67 1646.27C1237.89 1644.34 1237.29 1642.33 1236.87 1640.25C1236.48 1638.14 1236.27 1636.02 1236.25 1633.88V1627.28C1236.27 1625.17 1236.45 1623.08 1236.79 1620.99C1237.16 1618.88 1237.7 1616.86 1238.43 1614.94C1239.16 1613.01 1240.07 1611.23 1241.17 1609.59C1242.26 1607.92 1243.56 1606.49 1245.07 1605.29C1246.61 1604.07 1248.34 1603.1 1250.27 1602.4C1252.2 1601.7 1254.36 1601.34 1256.75 1601.34C1259.41 1601.34 1261.86 1601.76 1264.1 1602.59C1266.34 1603.4 1268.29 1604.57 1269.96 1606.11C1271.62 1607.62 1272.96 1609.46 1273.98 1611.62C1275 1613.75 1275.62 1616.15 1275.86 1618.8H1268.71C1268.42 1617.16 1267.98 1615.65 1267.38 1614.27C1266.78 1612.87 1265.99 1611.67 1265 1610.68C1264.03 1609.69 1262.87 1608.92 1261.52 1608.38C1260.17 1607.8 1258.59 1607.52 1256.79 1607.52C1255.07 1607.52 1253.55 1607.82 1252.22 1608.41C1250.89 1608.99 1249.74 1609.77 1248.75 1610.76C1247.76 1611.75 1246.94 1612.91 1246.29 1614.23C1245.63 1615.54 1245.1 1616.92 1244.68 1618.38C1244.27 1619.83 1243.97 1621.32 1243.79 1622.83C1243.6 1624.34 1243.51 1625.8 1243.51 1627.2V1633.88C1243.54 1635.32 1243.65 1636.8 1243.86 1638.34C1244.1 1639.85 1244.45 1641.33 1244.92 1642.79C1245.39 1644.25 1245.99 1645.63 1246.71 1646.93C1247.44 1648.23 1248.32 1649.38 1249.33 1650.37C1250.37 1651.36 1251.57 1652.15 1252.93 1652.75C1254.28 1653.32 1255.82 1653.62 1257.54 1653.65C1258.52 1653.67 1259.55 1653.64 1260.62 1653.53C1261.71 1653.43 1262.77 1653.22 1263.79 1652.91C1264.8 1652.59 1265.75 1652.18 1266.64 1651.66C1267.52 1651.11 1268.26 1650.41 1268.86 1649.55L1268.94 1636.77H1257.38V1630.68H1275.82L1275.93 1651.54ZM1303.94 1630.68L1316.91 1602.12H1325.11L1307.42 1637.79L1307.3 1659H1300.58L1300.46 1637.79L1282.77 1602.12H1291.01L1303.94 1630.68ZM1410.43 1644.27H1391.44L1386.87 1659H1379.64L1398 1602.12H1404.06L1422.11 1659H1414.92L1410.43 1644.27ZM1393.39 1637.98H1408.51L1401.01 1613.3L1393.39 1637.98ZM1466.95 1659H1459.61L1437.54 1616.5L1437.42 1659H1430.11V1602.12H1437.46L1459.53 1644.55L1459.64 1602.12H1466.95V1659ZM1478.63 1659V1602.12H1491.79C1495.75 1602.18 1499.28 1602.85 1502.38 1604.16C1505.5 1605.43 1508.13 1607.23 1510.27 1609.55C1512.43 1611.84 1514.07 1614.6 1515.19 1617.83C1516.34 1621.03 1516.92 1624.59 1516.95 1628.49V1632.67C1516.92 1636.58 1516.34 1640.15 1515.19 1643.38C1514.07 1646.58 1512.43 1649.34 1510.27 1651.66C1508.13 1653.95 1505.5 1655.74 1502.38 1657.05C1499.28 1658.32 1495.75 1658.97 1491.79 1659H1478.63ZM1485.97 1608.06V1653.1H1491.79C1494.87 1653.08 1497.52 1652.54 1499.76 1651.5C1502 1650.43 1503.85 1648.99 1505.31 1647.16C1506.79 1645.34 1507.89 1643.19 1508.59 1640.72C1509.32 1638.24 1509.7 1635.56 1509.72 1632.67V1628.41C1509.7 1625.52 1509.32 1622.85 1508.59 1620.41C1507.86 1617.93 1506.77 1615.8 1505.31 1614C1503.85 1612.18 1502 1610.74 1499.76 1609.7C1497.52 1608.66 1494.87 1608.11 1491.79 1608.06H1485.97ZM1575.39 1659V1602.12H1592.3C1594.64 1602.15 1596.94 1602.46 1599.18 1603.06C1601.42 1603.64 1603.41 1604.53 1605.15 1605.76C1606.9 1606.98 1608.29 1608.54 1609.33 1610.45C1610.37 1612.35 1610.88 1614.62 1610.86 1617.28C1610.83 1618.77 1610.58 1620.12 1610.11 1621.34C1609.67 1622.57 1609.05 1623.67 1608.24 1624.66C1607.46 1625.63 1606.53 1626.47 1605.46 1627.2C1604.4 1627.93 1603.26 1628.56 1602.07 1629.08C1603.58 1629.52 1604.96 1630.16 1606.21 1630.99C1607.48 1631.8 1608.58 1632.79 1609.49 1633.96C1610.4 1635.11 1611.1 1636.41 1611.6 1637.87C1612.12 1639.33 1612.38 1640.9 1612.38 1642.59C1612.4 1645.25 1611.9 1647.59 1610.86 1649.62C1609.81 1651.66 1608.42 1653.36 1606.68 1654.74C1604.93 1656.1 1602.91 1657.14 1600.62 1657.87C1598.36 1658.6 1596.01 1658.97 1593.59 1659H1575.39ZM1582.65 1632.4V1652.87H1593.79C1595.3 1652.84 1596.73 1652.59 1598.08 1652.12C1599.44 1651.63 1600.63 1650.95 1601.68 1650.09C1602.72 1649.23 1603.54 1648.18 1604.14 1646.93C1604.76 1645.68 1605.07 1644.26 1605.07 1642.67C1605.1 1641.06 1604.83 1639.62 1604.25 1638.38C1603.71 1637.12 1602.94 1636.07 1601.95 1635.21C1600.96 1634.33 1599.8 1633.65 1598.47 1633.18C1597.14 1632.71 1595.71 1632.45 1594.18 1632.4H1582.65ZM1582.65 1626.38H1592.73C1594.08 1626.36 1595.41 1626.15 1596.71 1625.76C1598.02 1625.34 1599.18 1624.76 1600.19 1624C1601.21 1623.22 1602.03 1622.27 1602.65 1621.15C1603.28 1620.03 1603.59 1618.73 1603.59 1617.24C1603.59 1615.65 1603.28 1614.3 1602.65 1613.18C1602.05 1612.06 1601.23 1611.15 1600.19 1610.45C1599.18 1609.72 1597.99 1609.18 1596.64 1608.84C1595.31 1608.51 1593.94 1608.32 1592.54 1608.3H1582.65V1626.38ZM1659.21 1602.12L1659.29 1640.64C1659.24 1643.3 1658.76 1645.78 1657.85 1648.1C1656.94 1650.42 1655.66 1652.45 1654.02 1654.2C1652.38 1655.91 1650.43 1657.28 1648.16 1658.3C1645.89 1659.29 1643.41 1659.78 1640.7 1659.78C1637.94 1659.78 1635.43 1659.29 1633.16 1658.3C1630.89 1657.31 1628.95 1655.95 1627.34 1654.23C1625.73 1652.49 1624.46 1650.46 1623.55 1648.14C1622.64 1645.8 1622.17 1643.3 1622.14 1640.64L1622.22 1602.12H1629.1L1629.25 1640.64C1629.28 1642.33 1629.54 1643.96 1630.04 1645.52C1630.56 1647.09 1631.29 1648.47 1632.22 1649.66C1633.19 1650.86 1634.37 1651.83 1635.78 1652.55C1637.21 1653.28 1638.85 1653.65 1640.7 1653.65C1642.55 1653.65 1644.18 1653.3 1645.58 1652.59C1646.99 1651.86 1648.16 1650.9 1649.1 1649.7C1650.06 1648.48 1650.79 1647.09 1651.29 1645.52C1651.78 1643.96 1652.05 1642.33 1652.11 1640.64L1652.22 1602.12H1659.21ZM1701.32 1644.62C1701.32 1642.88 1700.92 1641.41 1700.11 1640.21C1699.33 1639.01 1698.32 1638.01 1697.07 1637.2C1695.82 1636.37 1694.44 1635.68 1692.93 1635.13C1691.44 1634.59 1690.01 1634.09 1688.63 1633.65C1686.62 1633 1684.58 1632.22 1682.5 1631.3C1680.44 1630.39 1678.55 1629.27 1676.83 1627.95C1675.14 1626.62 1673.75 1625.05 1672.65 1623.26C1671.58 1621.43 1671.05 1619.3 1671.05 1616.85C1671.05 1614.4 1671.58 1612.22 1672.65 1610.29C1673.75 1608.36 1675.17 1606.73 1676.91 1605.41C1678.65 1604.08 1680.63 1603.08 1682.85 1602.4C1685.06 1601.7 1687.29 1601.34 1689.53 1601.34C1692 1601.34 1694.38 1601.76 1696.68 1602.59C1698.97 1603.4 1701 1604.55 1702.77 1606.03C1704.54 1607.52 1705.96 1609.31 1707.03 1611.42C1708.1 1613.53 1708.65 1615.89 1708.71 1618.49H1701.29C1701.08 1616.85 1700.67 1615.37 1700.07 1614.04C1699.48 1612.68 1698.68 1611.53 1697.69 1610.56C1696.7 1609.6 1695.52 1608.86 1694.14 1608.34C1692.78 1607.79 1691.25 1607.52 1689.53 1607.52C1688.15 1607.52 1686.79 1607.71 1685.46 1608.1C1684.16 1608.49 1682.99 1609.08 1681.95 1609.86C1680.93 1610.64 1680.11 1611.6 1679.49 1612.75C1678.89 1613.9 1678.59 1615.22 1678.59 1616.73C1678.62 1618.38 1679.03 1619.77 1679.84 1620.91C1680.65 1622.03 1681.66 1622.98 1682.89 1623.77C1684.14 1624.55 1685.48 1625.2 1686.91 1625.72C1688.37 1626.24 1689.74 1626.7 1691.01 1627.09C1692.42 1627.53 1693.84 1628.04 1695.27 1628.61C1696.7 1629.16 1698.08 1629.79 1699.41 1630.52C1700.74 1631.25 1701.98 1632.07 1703.12 1632.98C1704.27 1633.9 1705.27 1634.94 1706.13 1636.11C1706.99 1637.26 1707.65 1638.53 1708.12 1639.94C1708.62 1641.32 1708.86 1642.85 1708.86 1644.55C1708.86 1647.1 1708.29 1649.33 1707.14 1651.23C1706.02 1653.13 1704.57 1654.72 1702.77 1655.99C1700.97 1657.24 1698.94 1658.19 1696.68 1658.84C1694.41 1659.47 1692.14 1659.78 1689.88 1659.78C1687.35 1659.78 1684.88 1659.39 1682.46 1658.61C1680.04 1657.83 1677.86 1656.71 1675.93 1655.25C1674.03 1653.77 1672.48 1651.97 1671.29 1649.86C1670.09 1647.72 1669.45 1645.3 1669.37 1642.59H1676.75C1676.99 1644.36 1677.47 1645.94 1678.2 1647.32C1678.93 1648.67 1679.87 1649.83 1681.01 1650.8C1682.16 1651.73 1683.47 1652.45 1684.96 1652.95C1686.47 1653.41 1688.11 1653.65 1689.88 1653.65C1691.29 1653.65 1692.67 1653.48 1694.02 1653.14C1695.4 1652.78 1696.62 1652.23 1697.69 1651.5C1698.76 1650.74 1699.63 1649.81 1700.31 1648.69C1700.99 1647.54 1701.32 1646.19 1701.32 1644.62ZM1719.61 1602.12H1753.98V1608.41H1740.35V1652.75H1753.98V1659H1719.61V1652.75H1732.93V1608.41H1719.61V1602.12ZM1803.28 1659H1795.93L1773.86 1616.5L1773.75 1659H1766.44V1602.12H1773.79L1795.86 1644.55L1795.97 1602.12H1803.28V1659ZM1846.99 1632.71H1823.24V1652.87H1850.93V1659H1816.01V1602.12H1850.58V1608.3H1823.24V1626.58H1846.99V1632.71ZM1893.51 1644.62C1893.51 1642.88 1893.11 1641.41 1892.3 1640.21C1891.52 1639.01 1890.5 1638.01 1889.25 1637.2C1888 1636.37 1886.62 1635.68 1885.11 1635.13C1883.63 1634.59 1882.2 1634.09 1880.82 1633.65C1878.81 1633 1876.77 1632.22 1874.68 1631.3C1872.63 1630.39 1870.74 1629.27 1869.02 1627.95C1867.33 1626.62 1865.93 1625.05 1864.84 1623.26C1863.77 1621.43 1863.24 1619.3 1863.24 1616.85C1863.24 1614.4 1863.77 1612.22 1864.84 1610.29C1865.93 1608.36 1867.35 1606.73 1869.1 1605.41C1870.84 1604.08 1872.82 1603.08 1875.04 1602.4C1877.25 1601.7 1879.48 1601.34 1881.71 1601.34C1884.19 1601.34 1886.57 1601.76 1888.86 1602.59C1891.15 1603.4 1893.19 1604.55 1894.96 1606.03C1896.73 1607.52 1898.15 1609.31 1899.21 1611.42C1900.28 1613.53 1900.84 1615.89 1900.89 1618.49H1893.47C1893.26 1616.85 1892.86 1615.37 1892.26 1614.04C1891.66 1612.68 1890.87 1611.53 1889.88 1610.56C1888.89 1609.6 1887.7 1608.86 1886.32 1608.34C1884.97 1607.79 1883.43 1607.52 1881.71 1607.52C1880.33 1607.52 1878.98 1607.71 1877.65 1608.1C1876.35 1608.49 1875.18 1609.08 1874.14 1609.86C1873.12 1610.64 1872.3 1611.6 1871.68 1612.75C1871.08 1613.9 1870.78 1615.22 1870.78 1616.73C1870.8 1618.38 1871.22 1619.77 1872.03 1620.91C1872.83 1622.03 1873.85 1622.98 1875.07 1623.77C1876.32 1624.55 1877.67 1625.2 1879.1 1625.72C1880.56 1626.24 1881.92 1626.7 1883.2 1627.09C1884.61 1627.53 1886.02 1628.04 1887.46 1628.61C1888.89 1629.16 1890.27 1629.79 1891.6 1630.52C1892.93 1631.25 1894.16 1632.07 1895.31 1632.98C1896.45 1633.9 1897.46 1634.94 1898.32 1636.11C1899.18 1637.26 1899.84 1638.53 1900.31 1639.94C1900.8 1641.32 1901.05 1642.85 1901.05 1644.55C1901.05 1647.1 1900.48 1649.33 1899.33 1651.23C1898.21 1653.13 1896.75 1654.72 1894.96 1655.99C1893.16 1657.24 1891.13 1658.19 1888.86 1658.84C1886.6 1659.47 1884.33 1659.78 1882.07 1659.78C1879.54 1659.78 1877.07 1659.39 1874.64 1658.61C1872.22 1657.83 1870.05 1656.71 1868.12 1655.25C1866.22 1653.77 1864.67 1651.97 1863.47 1649.86C1862.27 1647.72 1861.64 1645.3 1861.56 1642.59H1868.94C1869.18 1644.36 1869.66 1645.94 1870.39 1647.32C1871.12 1648.67 1872.05 1649.83 1873.2 1650.8C1874.35 1651.73 1875.66 1652.45 1877.14 1652.95C1878.65 1653.41 1880.3 1653.65 1882.07 1653.65C1883.47 1653.65 1884.85 1653.48 1886.21 1653.14C1887.59 1652.78 1888.81 1652.23 1889.88 1651.5C1890.95 1650.74 1891.82 1649.81 1892.5 1648.69C1893.17 1647.54 1893.51 1646.19 1893.51 1644.62ZM1941.56 1644.62C1941.56 1642.88 1941.15 1641.41 1940.35 1640.21C1939.57 1639.01 1938.55 1638.01 1937.3 1637.2C1936.05 1636.37 1934.67 1635.68 1933.16 1635.13C1931.68 1634.59 1930.24 1634.09 1928.86 1633.65C1926.86 1633 1924.81 1632.22 1922.73 1631.3C1920.67 1630.39 1918.79 1629.27 1917.07 1627.95C1915.37 1626.62 1913.98 1625.05 1912.89 1623.26C1911.82 1621.43 1911.29 1619.3 1911.29 1616.85C1911.29 1614.4 1911.82 1612.22 1912.89 1610.29C1913.98 1608.36 1915.4 1606.73 1917.14 1605.41C1918.89 1604.08 1920.87 1603.08 1923.08 1602.4C1925.3 1601.7 1927.52 1601.34 1929.76 1601.34C1932.24 1601.34 1934.62 1601.76 1936.91 1602.59C1939.2 1603.4 1941.23 1604.55 1943 1606.03C1944.77 1607.52 1946.19 1609.31 1947.26 1611.42C1948.33 1613.53 1948.89 1615.89 1948.94 1618.49H1941.52C1941.31 1616.85 1940.91 1615.37 1940.31 1614.04C1939.71 1612.68 1938.92 1611.53 1937.93 1610.56C1936.94 1609.6 1935.75 1608.86 1934.37 1608.34C1933.02 1607.79 1931.48 1607.52 1929.76 1607.52C1928.38 1607.52 1927.03 1607.71 1925.7 1608.1C1924.4 1608.49 1923.23 1609.08 1922.18 1609.86C1921.17 1610.64 1920.35 1611.6 1919.72 1612.75C1919.12 1613.9 1918.82 1615.22 1918.82 1616.73C1918.85 1618.38 1919.27 1619.77 1920.07 1620.91C1920.88 1622.03 1921.9 1622.98 1923.12 1623.77C1924.37 1624.55 1925.71 1625.2 1927.14 1625.72C1928.6 1626.24 1929.97 1626.7 1931.25 1627.09C1932.65 1627.53 1934.07 1628.04 1935.5 1628.61C1936.94 1629.16 1938.32 1629.79 1939.64 1630.52C1940.97 1631.25 1942.21 1632.07 1943.36 1632.98C1944.5 1633.9 1945.5 1634.94 1946.36 1636.11C1947.22 1637.26 1947.89 1638.53 1948.36 1639.94C1948.85 1641.32 1949.1 1642.85 1949.1 1644.55C1949.1 1647.1 1948.52 1649.33 1947.38 1651.23C1946.26 1653.13 1944.8 1654.72 1943 1655.99C1941.21 1657.24 1939.18 1658.19 1936.91 1658.84C1934.64 1659.47 1932.38 1659.78 1930.11 1659.78C1927.59 1659.78 1925.11 1659.39 1922.69 1658.61C1920.27 1657.83 1918.1 1656.71 1916.17 1655.25C1914.27 1653.77 1912.72 1651.97 1911.52 1649.86C1910.32 1647.72 1909.68 1645.3 1909.61 1642.59H1916.99C1917.22 1644.36 1917.7 1645.94 1918.43 1647.32C1919.16 1648.67 1920.1 1649.83 1921.25 1650.8C1922.39 1651.73 1923.71 1652.45 1925.19 1652.95C1926.7 1653.41 1928.34 1653.65 1930.11 1653.65C1931.52 1653.65 1932.9 1653.48 1934.25 1653.14C1935.63 1652.78 1936.86 1652.23 1937.93 1651.5C1938.99 1650.74 1939.87 1649.81 1940.54 1648.69C1941.22 1647.54 1941.56 1646.19 1941.56 1644.62Z" fill="#1F2A41"/>
<path d="M1265.57 1994H1181.72V1982.31L1223.65 1935.73C1227.4 1931.57 1230.53 1927.88 1233.05 1924.65C1235.57 1921.43 1237.59 1918.47 1239.12 1915.78C1240.64 1913.02 1241.72 1910.45 1242.37 1908.04C1243.01 1905.58 1243.33 1903.06 1243.33 1900.48C1243.33 1897.32 1242.81 1894.36 1241.75 1891.61C1240.76 1888.79 1239.26 1886.36 1237.27 1884.31C1235.34 1882.26 1232.96 1880.65 1230.15 1879.48C1227.4 1878.25 1224.26 1877.63 1220.75 1877.63C1216.47 1877.63 1212.75 1878.25 1209.58 1879.48C1206.48 1880.71 1203.87 1882.47 1201.76 1884.75C1199.71 1886.98 1198.16 1889.7 1197.1 1892.93C1196.11 1896.15 1195.61 1899.75 1195.61 1903.74H1179.26C1179.26 1898.35 1180.2 1893.28 1182.07 1888.53C1183.95 1883.73 1186.64 1879.54 1190.16 1875.96C1193.73 1872.39 1198.07 1869.55 1203.17 1867.44C1208.32 1865.33 1214.18 1864.27 1220.75 1864.27C1226.78 1864.27 1232.2 1865.18 1237.01 1867C1241.87 1868.76 1245.97 1871.22 1249.31 1874.38C1252.65 1877.54 1255.2 1881.29 1256.96 1885.63C1258.77 1889.97 1259.68 1894.68 1259.68 1899.78C1259.68 1903.59 1259.04 1907.37 1257.75 1911.12C1256.46 1914.81 1254.7 1918.47 1252.47 1922.11C1250.31 1925.74 1247.76 1929.34 1244.83 1932.92C1241.96 1936.43 1238.91 1939.95 1235.69 1943.46L1201.32 1980.73H1265.57V1994ZM1375.52 1945.04C1375.52 1953.19 1374.58 1960.43 1372.71 1966.75C1370.83 1973.02 1368.14 1978.33 1364.62 1982.66C1361.11 1986.94 1356.8 1990.19 1351.7 1992.42C1346.61 1994.64 1340.78 1995.76 1334.21 1995.76C1327.71 1995.76 1321.88 1994.64 1316.72 1992.42C1311.62 1990.19 1307.29 1986.94 1303.71 1982.66C1300.14 1978.33 1297.39 1973.02 1295.45 1966.75C1293.58 1960.43 1292.64 1953.19 1292.64 1945.04V1915.07C1292.64 1906.93 1293.58 1899.72 1295.45 1893.45C1297.33 1887.12 1300.02 1881.79 1303.54 1877.46C1307.11 1873.12 1311.45 1869.84 1316.55 1867.61C1321.7 1865.33 1327.53 1864.19 1334.04 1864.19C1340.6 1864.19 1346.43 1865.33 1351.53 1867.61C1356.68 1869.84 1361.02 1873.12 1364.54 1877.46C1368.11 1881.79 1370.83 1887.12 1372.71 1893.45C1374.58 1899.72 1375.52 1906.93 1375.52 1915.07V1945.04ZM1308.99 1941.79L1358.82 1903.56C1357.88 1895.06 1355.39 1888.62 1351.35 1884.22C1347.37 1879.77 1341.6 1877.54 1334.04 1877.54C1325.48 1877.54 1319.15 1880.45 1315.05 1886.25C1311.01 1891.99 1308.99 1900.4 1308.99 1911.47V1941.79ZM1359.17 1919.12L1309.43 1957.17C1310.42 1965.44 1312.97 1971.73 1317.07 1976.07C1321.18 1980.41 1326.89 1982.57 1334.21 1982.57C1342.83 1982.57 1349.12 1979.64 1353.11 1973.79C1357.15 1967.93 1359.17 1959.49 1359.17 1948.47V1919.12ZM1456.03 1994H1439.77V1886.77L1406.28 1899.52V1884.66L1454.71 1866.03H1456.03V1994ZM1528.89 1979.59C1534.69 1979.59 1539.79 1979.09 1544.18 1978.09C1548.58 1977.04 1552.39 1975.57 1555.61 1973.7C1558.89 1971.82 1561.62 1969.62 1563.78 1967.11C1565.95 1964.53 1567.71 1961.71 1569.06 1958.67C1570.46 1955.56 1571.49 1952.31 1572.13 1948.91C1572.78 1945.46 1573.19 1941.94 1573.36 1938.37C1571.96 1940.12 1570.35 1941.79 1568.53 1943.38C1566.71 1944.9 1564.66 1946.25 1562.38 1947.42C1560.09 1948.59 1557.54 1949.53 1554.73 1950.23C1551.98 1950.88 1548.96 1951.2 1545.68 1951.2C1539.35 1951.2 1533.87 1949.97 1529.24 1947.51C1524.67 1944.99 1520.89 1941.71 1517.9 1937.66C1514.92 1933.62 1512.72 1929.05 1511.31 1923.95C1509.91 1918.85 1509.2 1913.73 1509.2 1908.57C1509.2 1902.54 1510.02 1896.85 1511.66 1891.52C1513.36 1886.13 1515.85 1881.44 1519.13 1877.46C1522.47 1873.41 1526.61 1870.22 1531.53 1867.88C1536.51 1865.47 1542.28 1864.27 1548.84 1864.27C1553.76 1864.27 1558.19 1864.98 1562.11 1866.38C1566.1 1867.73 1569.58 1869.63 1572.57 1872.1C1575.62 1874.5 1578.23 1877.37 1580.39 1880.71C1582.56 1883.99 1584.32 1887.56 1585.67 1891.43C1587.07 1895.24 1588.1 1899.25 1588.74 1903.47C1589.39 1907.63 1589.71 1911.82 1589.71 1916.04V1921.93C1589.71 1927.38 1589.45 1932.97 1588.92 1938.72C1588.39 1944.4 1587.34 1949.91 1585.76 1955.24C1584.23 1960.57 1582.06 1965.61 1579.25 1970.36C1576.44 1975.04 1572.78 1979.15 1568.27 1982.66C1563.75 1986.18 1558.28 1988.96 1551.83 1991.01C1545.38 1993.06 1537.74 1994.09 1528.89 1994.09H1527.22V1979.59H1528.89ZM1548.31 1937.75C1551.07 1937.75 1553.73 1937.31 1556.31 1936.43C1558.95 1935.49 1561.35 1934.21 1563.52 1932.56C1565.75 1930.87 1567.71 1928.9 1569.41 1926.68C1571.17 1924.39 1572.54 1921.87 1573.54 1919.12V1913.84C1573.54 1908.16 1572.87 1903.09 1571.52 1898.64C1570.23 1894.19 1568.44 1890.44 1566.16 1887.39C1563.93 1884.28 1561.32 1881.91 1558.33 1880.27C1555.4 1878.63 1552.27 1877.81 1548.93 1877.81C1545.12 1877.81 1541.75 1878.57 1538.82 1880.09C1535.89 1881.62 1533.4 1883.73 1531.35 1886.42C1529.36 1889.06 1527.84 1892.22 1526.78 1895.91C1525.73 1899.55 1525.2 1903.47 1525.2 1907.69C1525.2 1911.44 1525.67 1915.13 1526.61 1918.77C1527.54 1922.34 1528.95 1925.53 1530.82 1928.35C1532.76 1931.16 1535.16 1933.44 1538.03 1935.2C1540.96 1936.9 1544.39 1937.75 1548.31 1937.75Z" fill="#1F2A41"/>
<path d="M2600.67 1558.37C2606.35 1560.22 2611.41 1562.74 2615.88 1565.92C2620.28 1569.08 2623.9 1572.81 2626.72 1577.11C2629.49 1581.33 2631.39 1586.11 2632.4 1591.43C2633.37 1596.69 2633.27 1602.34 2632.12 1608.38C2631.14 1613.56 2629.52 1618.14 2627.27 1622.13C2624.97 1626.04 2622.21 1629.42 2618.98 1632.27C2615.77 1635.06 2612.17 1637.32 2608.2 1639.07C2604.24 1640.76 2600.03 1642.02 2595.58 1642.84C2591.14 1643.61 2586.57 1643.96 2581.87 1643.9C2577.18 1643.78 2572.5 1643.31 2567.83 1642.47L2550.3 1639.13C2545.65 1638.19 2541.12 1636.91 2536.72 1635.29C2532.32 1633.62 2528.2 1631.61 2524.35 1629.27C2520.52 1626.87 2517.07 1624.15 2514.01 1621.12C2510.9 1618.03 2508.36 1614.59 2506.4 1610.82C2504.44 1606.99 2503.15 1602.83 2502.51 1598.36C2501.81 1593.87 2501.96 1589.01 2502.96 1583.77C2504.16 1577.49 2506.21 1572.07 2509.11 1567.49C2511.95 1562.9 2515.49 1559.17 2519.74 1556.28C2523.93 1553.38 2528.71 1551.33 2534.06 1550.15C2539.43 1548.9 2545.17 1548.51 2551.29 1548.96L2548.25 1564.93C2544.35 1564.72 2540.64 1564.94 2537.12 1565.58C2533.59 1566.22 2530.39 1567.37 2527.51 1569.03C2524.63 1570.69 2522.2 1572.94 2520.23 1575.79C2518.21 1578.56 2516.8 1582.05 2516 1586.25C2515.28 1590.05 2515.27 1593.54 2515.97 1596.72C2516.63 1599.82 2517.83 1602.65 2519.55 1605.18C2521.29 1607.66 2523.43 1609.89 2525.97 1611.86C2528.53 1613.78 2531.31 1615.47 2534.31 1616.94C2537.31 1618.41 2540.44 1619.66 2543.7 1620.7C2546.92 1621.67 2550.08 1622.45 2553.19 1623.04L2570.89 1626.42C2574 1627.01 2577.25 1627.45 2580.66 1627.74C2584.01 1627.96 2587.39 1627.95 2590.77 1627.7C2594.1 1627.44 2597.31 1626.89 2600.39 1626.04C2603.48 1625.2 2606.32 1623.92 2608.91 1622.21C2611.44 1620.48 2613.62 1618.3 2615.43 1615.67C2617.19 1613.02 2618.44 1609.77 2619.17 1605.91C2619.97 1601.71 2620 1597.96 2619.26 1594.65C2618.53 1591.29 2617.18 1588.32 2615.23 1585.74C2613.22 1583.15 2610.72 1580.92 2607.74 1579.04C2604.7 1577.15 2601.33 1575.58 2597.63 1574.34L2600.67 1558.37ZM2603.19 1448.44C2607.67 1449.35 2612.14 1450.62 2616.6 1452.25C2621.02 1453.8 2625.21 1455.73 2629.18 1458.04C2633.16 1460.35 2636.76 1463.04 2640 1466.1C2643.24 1469.1 2645.94 1472.48 2648.09 1476.23C2650.24 1479.98 2651.72 1484.11 2652.53 1488.62C2653.29 1493.06 2653.18 1497.87 2652.19 1503.05C2651.21 1508.23 2649.54 1512.77 2647.18 1516.68C2644.78 1520.51 2641.89 1523.78 2638.51 1526.48C2635.14 1529.17 2631.38 1531.35 2627.25 1533.01C2623.06 1534.66 2618.68 1535.85 2614.13 1536.59C2609.58 1537.28 2604.97 1537.56 2600.28 1537.44C2595.59 1537.33 2590.99 1536.87 2586.49 1536.07L2572.16 1533.34C2567.68 1532.43 2563.23 1531.19 2558.82 1529.63C2554.36 1528.01 2550.14 1526.04 2546.16 1523.73C2542.2 1521.37 2538.6 1518.68 2535.35 1515.68C2532.06 1512.61 2529.34 1509.19 2527.19 1505.44C2524.99 1501.68 2523.5 1497.58 2522.74 1493.14C2521.92 1488.63 2522.01 1483.79 2523 1478.61C2523.99 1473.43 2525.69 1468.89 2528.1 1465C2530.45 1461.09 2533.32 1457.79 2536.7 1455.09C2540.07 1452.4 2543.85 1450.25 2548.03 1448.66C2552.16 1447.01 2556.5 1445.83 2561.05 1445.15C2565.6 1444.41 2570.25 1444.13 2574.99 1444.32C2579.73 1444.44 2584.36 1444.91 2588.86 1445.71L2603.19 1448.44ZM2585.67 1461.47C2582.67 1460.96 2579.52 1460.57 2576.23 1460.3C2572.89 1460.02 2569.55 1460.01 2566.22 1460.27C2562.84 1460.46 2559.58 1460.98 2556.44 1461.81C2553.24 1462.63 2550.35 1463.87 2547.77 1465.52C2545.13 1467.17 2542.91 1469.28 2541.11 1471.86C2539.25 1474.43 2537.96 1477.58 2537.25 1481.32C2536.54 1485.01 2536.59 1488.39 2537.37 1491.46C2538.16 1494.53 2539.48 1497.32 2541.33 1499.82C2543.12 1502.31 2545.35 1504.52 2548.02 1506.46C2550.64 1508.39 2553.48 1510.09 2556.53 1511.57C2559.55 1512.98 2562.65 1514.2 2565.86 1515.23C2569.02 1516.19 2572.06 1516.98 2574.98 1517.59L2589.49 1520.36C2592.43 1520.86 2595.58 1521.25 2598.93 1521.53C2602.28 1521.75 2605.66 1521.74 2609.04 1521.49C2612.37 1521.23 2615.64 1520.69 2618.84 1519.86C2622.04 1519.04 2624.95 1517.81 2627.59 1516.17C2630.18 1514.51 2632.4 1512.4 2634.26 1509.83C2636.12 1507.26 2637.41 1504.11 2638.12 1500.37C2638.83 1496.62 2638.8 1493.22 2638.01 1490.15C2637.23 1487.01 2635.94 1484.23 2634.14 1481.8C2632.29 1479.3 2630.05 1477.12 2627.43 1475.24C2624.76 1473.3 2621.91 1471.63 2618.9 1470.22C2615.84 1468.74 2612.7 1467.55 2609.47 1466.63C2606.26 1465.66 2603.16 1464.86 2600.18 1464.24L2585.67 1461.47ZM2663.13 1436.24L2537.43 1412.29L2542.97 1383.19C2544.75 1374.46 2547.74 1366.95 2551.92 1360.65C2556.05 1354.28 2561.13 1349.22 2567.16 1345.48C2573.13 1341.67 2579.92 1339.2 2587.53 1338.09C2595.09 1336.9 2603.2 1337.11 2611.84 1338.69L2621.08 1340.45C2629.7 1342.16 2637.34 1344.95 2644 1348.85C2650.6 1352.67 2656.02 1357.46 2660.23 1363.21C2664.39 1368.9 2667.26 1375.47 2668.82 1382.92C2670.33 1390.31 2670.29 1398.38 2668.68 1407.14L2663.13 1436.24ZM2553.64 1398.56L2653.19 1417.52L2655.64 1404.66C2656.88 1397.86 2656.82 1391.76 2655.46 1386.37C2654.04 1380.97 2651.62 1376.28 2648.21 1372.29C2644.81 1368.24 2640.52 1364.91 2635.35 1362.32C2630.18 1359.67 2624.42 1357.7 2618.04 1356.43L2608.63 1354.63C2602.23 1353.47 2596.17 1353.18 2590.45 1353.76C2584.68 1354.33 2579.49 1355.85 2574.91 1358.32C2570.27 1360.77 2566.32 1364.26 2563.08 1368.77C2559.83 1373.28 2557.5 1378.92 2556.09 1385.69L2553.64 1398.56ZM2557.97 1304.45L2572.45 1228.47L2586.35 1231.12L2580.61 1261.25L2678.6 1279.93L2684.34 1249.79L2698.16 1252.43L2683.68 1328.4L2669.87 1325.77L2675.48 1296.33L2577.48 1277.66L2571.87 1307.1L2557.97 1304.45ZM2718.92 1143.47L2715.83 1159.7L2612.6 1190.58L2706.48 1208.74L2703.41 1224.88L2577.7 1200.93L2580.79 1184.7L2683.85 1153.79L2590.14 1135.66L2593.21 1119.52L2718.92 1143.47ZM2723.16 1031.54C2728.36 1038.02 2731.81 1044.97 2733.5 1052.39C2735.19 1059.81 2735.22 1067.6 2733.61 1075.76C2732.56 1080.93 2730.88 1085.56 2728.55 1089.65C2726.17 1093.67 2723.33 1097.16 2720.02 1100.11C2716.66 1103.04 2712.92 1105.46 2708.8 1107.36C2704.68 1109.26 2700.35 1110.7 2695.81 1111.69C2691.22 1112.6 2686.53 1113.08 2681.75 1113.12C2676.93 1113.1 2672.15 1112.67 2667.42 1111.82L2652.83 1109.04C2648.18 1108.1 2643.62 1106.81 2639.16 1105.19C2634.65 1103.49 2630.42 1101.43 2626.47 1099.01C2622.51 1096.59 2618.95 1093.82 2615.79 1090.71C2612.57 1087.59 2609.95 1084.11 2607.94 1080.27C2605.88 1076.36 2604.48 1072.13 2603.74 1067.57C2602.99 1063.01 2603.13 1058.09 2604.14 1052.79C2605.25 1046.92 2607.21 1041.69 2609.99 1037.09C2612.72 1032.48 2616.13 1028.66 2620.23 1025.62C2624.27 1022.57 2628.89 1020.38 2634.1 1019.05C2639.24 1017.7 2644.8 1017.33 2650.77 1017.93L2647.76 1033.73C2644.02 1033.67 2640.49 1034.01 2637.19 1034.76C2633.83 1035.49 2630.85 1036.74 2628.24 1038.51C2625.65 1040.22 2623.46 1042.46 2621.68 1045.22C2619.85 1047.97 2618.55 1051.34 2617.79 1055.31C2617.07 1059.11 2617.09 1062.6 2617.85 1065.79C2618.56 1068.96 2619.8 1071.85 2621.57 1074.46C2623.34 1077.06 2625.56 1079.36 2628.22 1081.36C2630.82 1083.35 2633.65 1085.11 2636.7 1086.64C2639.74 1088.18 2642.9 1089.47 2646.16 1090.51C2649.42 1091.54 2652.61 1092.36 2655.71 1092.95L2670.48 1095.77C2673.65 1096.31 2676.98 1096.68 2680.47 1096.86C2683.91 1096.98 2687.33 1096.83 2690.76 1096.41C2694.18 1095.99 2697.48 1095.24 2700.66 1094.18C2703.85 1093.12 2706.75 1091.67 2709.36 1089.84C2711.99 1087.96 2714.25 1085.65 2716.14 1082.9C2717.98 1080.15 2719.29 1076.88 2720.07 1073.09C2720.54 1070.92 2720.89 1068.63 2721.11 1066.22C2721.34 1063.76 2721.33 1061.34 2721.06 1058.97C2720.8 1056.59 2720.28 1054.32 2719.5 1052.14C2718.66 1049.95 2717.42 1048.02 2715.78 1046.33L2687.58 1040.78L2682.71 1066.33L2669.24 1063.77L2677 1023.02L2723.16 1031.54Z" fill="white"/>
<path d="M77.8196 980.519L175.559 961.717L181.15 990.784C181.88 994.82 182.101 998.862 181.812 1002.91C181.568 1006.95 180.682 1010.67 179.156 1014.07C177.629 1017.47 175.405 1020.38 172.482 1022.8C169.56 1025.22 165.812 1026.85 161.238 1027.68C158.679 1028.13 156.27 1028.15 154.011 1027.75C151.762 1027.39 149.653 1026.68 147.686 1025.62C145.772 1024.6 144.012 1023.29 142.405 1021.7C140.799 1020.1 139.351 1018.36 138.06 1016.48C137.798 1019.22 137.158 1021.8 136.139 1024.22C135.174 1026.68 133.835 1028.89 132.122 1030.84C130.455 1032.79 128.449 1034.43 126.107 1035.76C123.773 1037.14 121.151 1038.11 118.242 1038.67C113.686 1039.59 109.491 1039.49 105.656 1038.37C101.821 1037.25 98.4288 1035.42 95.4801 1032.88C92.5762 1030.33 90.1189 1027.21 88.1083 1023.51C86.1062 1019.86 84.6825 1015.95 83.8372 1011.8L77.8196 980.519ZM125.936 984.211L90.7606 990.977L94.4409 1010.11C94.985 1012.7 95.8836 1015.08 97.1368 1017.25C98.4348 1019.41 99.9944 1021.25 101.816 1022.75C103.637 1024.26 105.72 1025.32 108.066 1025.94C110.421 1026.6 112.964 1026.66 115.693 1026.14C118.477 1025.65 120.848 1024.71 122.806 1023.31C124.774 1021.96 126.332 1020.29 127.482 1018.3C128.676 1016.31 129.457 1014.09 129.823 1011.66C130.19 1009.22 130.164 1006.67 129.745 1004.01L125.936 984.211ZM136.274 982.222L139.605 999.541C140.098 1001.86 140.895 1004.07 141.997 1006.18C143.143 1008.28 144.533 1010.08 146.167 1011.58C147.845 1013.06 149.75 1014.16 151.881 1014.86C154.012 1015.57 156.353 1015.67 158.903 1015.18C161.633 1014.66 163.857 1013.67 165.575 1012.23C167.301 1010.83 168.596 1009.12 169.46 1007.09C170.378 1005.11 170.903 1002.9 171.038 1000.46C171.18 998.062 171.042 995.652 170.621 993.227L167.354 976.243L136.274 982.222ZM203.271 1105.78L137.108 1118.64C132.526 1119.43 128.093 1119.42 123.808 1118.62C119.524 1117.82 115.612 1116.3 112.071 1114.06C108.575 1111.81 105.58 1108.9 103.085 1105.35C100.636 1101.78 98.9633 1097.67 98.068 1093.02C97.1554 1088.27 97.175 1083.79 98.1266 1079.57C99.0782 1075.35 100.764 1071.57 103.184 1068.22C105.649 1064.87 108.722 1062.03 112.403 1059.7C116.13 1057.36 120.271 1055.73 124.827 1054.8L191.042 1042.2L193.315 1054.02L127.177 1067.02C124.277 1067.62 121.566 1068.61 119.045 1069.98C116.532 1071.39 114.401 1073.1 112.652 1075.1C110.912 1077.16 109.648 1079.51 108.86 1082.17C108.08 1084.87 107.996 1087.81 108.607 1090.99C109.218 1094.17 110.361 1096.85 112.034 1099.03C113.752 1101.21 115.795 1102.9 118.164 1104.12C120.585 1105.37 123.221 1106.16 126.069 1106.49C128.918 1106.83 131.806 1106.76 134.732 1106.29L200.959 1093.76L203.271 1105.78ZM144.155 1192.19C147.154 1191.61 149.549 1190.43 151.34 1188.65C153.141 1186.91 154.528 1184.83 155.502 1182.42C156.521 1180 157.251 1177.4 157.691 1174.62C158.14 1171.89 158.517 1169.26 158.822 1166.74C159.278 1163.08 159.944 1159.31 160.822 1155.43C161.708 1151.59 163.008 1147.98 164.723 1144.59C166.445 1141.24 168.67 1138.33 171.396 1135.85C174.176 1133.42 177.669 1131.79 181.876 1130.98C186.083 1130.17 190.018 1130.37 193.683 1131.57C197.356 1132.81 200.622 1134.71 203.482 1137.27C206.341 1139.83 208.718 1142.9 210.613 1146.48C212.553 1150.05 213.894 1153.76 214.634 1157.61C215.452 1161.86 215.523 1166.09 214.849 1170.31C214.219 1174.51 212.922 1178.38 210.956 1181.91C208.991 1185.45 206.372 1188.48 203.1 1191.01C199.828 1193.55 195.963 1195.29 191.505 1196.24L189.051 1183.48C191.802 1182.58 194.219 1181.4 196.304 1179.93C198.433 1178.45 200.162 1176.71 201.49 1174.69C202.819 1172.67 203.703 1170.39 204.142 1167.84C204.634 1165.33 204.596 1162.6 204.028 1159.65C203.571 1157.28 202.788 1155.01 201.678 1152.86C200.576 1150.75 199.182 1148.93 197.495 1147.4C195.816 1145.91 193.889 1144.82 191.714 1144.13C189.547 1143.48 187.165 1143.4 184.57 1143.9C181.759 1144.49 179.502 1145.66 177.8 1147.43C176.143 1149.19 174.845 1151.25 173.907 1153.61C172.978 1156.02 172.302 1158.54 171.881 1161.17C171.468 1163.85 171.136 1166.35 170.887 1168.67C170.591 1171.23 170.188 1173.84 169.676 1176.49C169.21 1179.13 168.57 1181.71 167.756 1184.24C166.942 1186.76 165.941 1189.16 164.754 1191.43C163.566 1193.7 162.107 1195.77 160.378 1197.63C158.693 1199.49 156.719 1201.05 154.458 1202.32C152.249 1203.63 149.691 1204.56 146.782 1205.12C142.396 1205.96 138.38 1205.71 134.735 1204.37C131.097 1203.08 127.885 1201.1 125.099 1198.43C122.356 1195.76 120.052 1192.58 118.184 1188.9C116.361 1185.21 115.075 1181.42 114.326 1177.53C113.491 1173.19 113.344 1168.81 113.886 1164.39C114.428 1159.97 115.634 1155.86 117.503 1152.07C119.425 1148.31 122.001 1145.05 125.23 1142.3C128.503 1139.53 132.454 1137.64 137.083 1136.61L139.524 1149.29C136.558 1150.28 134.01 1151.63 131.879 1153.34C129.793 1155.04 128.111 1157.04 126.834 1159.32C125.602 1161.6 124.806 1164.1 124.446 1166.81C124.14 1169.56 124.28 1172.46 124.865 1175.5C125.33 1177.92 126.077 1180.24 127.106 1182.45C128.189 1184.7 129.534 1186.63 131.14 1188.22C132.79 1189.8 134.69 1190.99 136.838 1191.79C139.031 1192.57 141.47 1192.71 144.155 1192.19ZM223.235 1209.56L234.598 1268.63L223.791 1270.71L219.284 1247.28L143.093 1261.94L147.6 1285.36L136.859 1287.43L125.495 1228.36L136.236 1226.29L140.639 1249.18L216.83 1234.53L212.427 1211.63L223.235 1209.56ZM153.156 1372.15L150.728 1359.53L216.468 1307.55L143.393 1321.4L140.978 1308.84L238.718 1290.04L241.145 1302.66L175.54 1354.61L248.48 1340.79L250.895 1353.35L153.156 1372.15ZM212.783 1438.57L204.932 1397.76L170.293 1404.42L179.449 1452.02L168.91 1454.04L157.365 1394.03L255.105 1375.23L266.533 1434.64L255.926 1436.68L246.887 1389.69L215.471 1395.73L223.322 1436.55L212.783 1438.57ZM207.688 1522.46C210.687 1521.89 213.082 1520.71 214.874 1518.92C216.674 1517.18 218.061 1515.11 219.035 1512.69C220.054 1510.27 220.784 1507.67 221.224 1504.89C221.673 1502.16 222.05 1499.54 222.355 1497.02C222.811 1493.36 223.478 1489.58 224.355 1485.7C225.241 1481.87 226.542 1478.25 228.256 1474.86C229.979 1471.51 232.203 1468.6 234.93 1466.13C237.709 1463.69 241.202 1462.07 245.409 1461.26C249.616 1460.45 253.552 1460.64 257.216 1461.84C260.889 1463.08 264.156 1464.98 267.015 1467.54C269.874 1470.1 272.251 1473.17 274.147 1476.75C276.087 1480.32 277.427 1484.03 278.167 1487.88C278.985 1492.13 279.057 1496.37 278.382 1500.58C277.752 1504.78 276.455 1508.65 274.489 1512.19C272.524 1515.72 269.905 1518.75 266.633 1521.29C263.361 1523.82 259.496 1525.56 255.038 1526.51L252.585 1513.76C255.335 1512.86 257.753 1511.67 259.837 1510.2C261.966 1508.73 263.695 1506.98 265.024 1504.96C266.352 1502.94 267.236 1500.66 267.675 1498.11C268.167 1495.61 268.129 1492.88 267.561 1489.92C267.105 1487.55 266.321 1485.29 265.211 1483.13C264.109 1481.03 262.715 1479.21 261.028 1477.67C259.35 1476.19 257.423 1475.1 255.247 1474.4C253.08 1473.75 250.698 1473.67 248.103 1474.17C245.292 1474.76 243.035 1475.94 241.333 1477.7C239.676 1479.46 238.378 1481.52 237.44 1483.88C236.511 1486.29 235.835 1488.81 235.414 1491.44C235.001 1494.12 234.67 1496.62 234.42 1498.94C234.124 1501.51 233.721 1504.11 233.21 1506.76C232.743 1509.41 232.103 1511.99 231.289 1514.51C230.475 1517.03 229.474 1519.43 228.287 1521.7C227.099 1523.97 225.641 1526.04 223.911 1527.9C222.226 1529.76 220.252 1531.32 217.991 1532.59C215.783 1533.9 213.224 1534.83 210.315 1535.39C205.929 1536.24 201.914 1535.99 198.268 1534.65C194.631 1533.35 191.419 1531.37 188.632 1528.7C185.89 1526.03 183.585 1522.85 181.717 1519.17C179.894 1515.49 178.608 1511.7 177.859 1507.8C177.024 1503.46 176.877 1499.08 177.419 1494.66C177.961 1490.24 179.167 1486.13 181.036 1482.34C182.958 1478.58 185.534 1475.33 188.763 1472.57C192.037 1469.81 195.988 1467.91 200.616 1466.88L203.057 1479.57C200.091 1480.56 197.543 1481.9 195.412 1483.61C193.326 1485.31 191.644 1487.31 190.367 1489.6C189.135 1491.87 188.339 1494.37 187.979 1497.09C187.673 1499.84 187.813 1502.73 188.398 1505.78C188.863 1508.19 189.61 1510.51 190.64 1512.72C191.722 1514.98 193.067 1516.9 194.673 1518.49C196.324 1520.08 198.223 1521.27 200.371 1522.06C202.564 1522.84 205.003 1522.98 207.688 1522.46ZM223.572 1605.03C226.57 1604.45 228.965 1603.27 230.757 1601.49C232.557 1599.75 233.945 1597.67 234.919 1595.26C235.938 1592.84 236.667 1590.24 237.108 1587.46C237.557 1584.73 237.934 1582.1 238.238 1579.59C238.694 1575.92 239.361 1572.15 240.238 1568.27C241.125 1564.43 242.425 1560.82 244.139 1557.43C245.862 1554.08 248.086 1551.17 250.813 1548.69C253.593 1546.26 257.086 1544.63 261.292 1543.82C265.499 1543.02 269.435 1543.21 273.1 1544.41C276.773 1545.65 280.039 1547.55 282.898 1550.11C285.757 1552.67 288.135 1555.74 290.03 1559.32C291.97 1562.89 293.31 1566.6 294.05 1570.45C294.868 1574.7 294.94 1578.93 294.266 1583.15C293.636 1587.35 292.338 1591.22 290.373 1594.76C288.407 1598.29 285.788 1601.32 282.516 1603.85C279.244 1606.39 275.379 1608.13 270.921 1609.08L268.468 1596.32C271.218 1595.42 273.636 1594.24 275.72 1592.77C277.849 1591.29 279.578 1589.55 280.907 1587.53C282.236 1585.51 283.119 1583.23 283.558 1580.68C284.05 1578.17 284.012 1575.44 283.444 1572.49C282.988 1570.12 282.205 1567.86 281.094 1565.7C279.993 1563.59 278.598 1561.77 276.911 1560.24C275.233 1558.75 273.306 1557.66 271.13 1556.97C268.963 1556.32 266.582 1556.24 263.986 1556.74C261.175 1557.33 258.919 1558.51 257.217 1560.27C255.559 1562.03 254.261 1564.09 253.323 1566.45C252.394 1568.86 251.719 1571.38 251.297 1574.01C250.884 1576.69 250.553 1579.19 250.303 1581.51C250.008 1584.07 249.604 1586.68 249.093 1589.33C248.627 1591.97 247.986 1594.56 247.172 1597.08C246.358 1599.6 245.358 1602 244.17 1604.27C242.983 1606.54 241.524 1608.61 239.794 1610.47C238.109 1612.33 236.136 1613.89 233.874 1615.16C231.666 1616.47 229.107 1617.4 226.198 1617.96C221.813 1618.8 217.797 1618.56 214.151 1617.21C210.514 1615.92 207.302 1613.94 204.515 1611.27C201.773 1608.6 199.468 1605.42 197.6 1601.74C195.777 1598.06 194.491 1594.27 193.742 1590.37C192.907 1586.03 192.761 1581.65 193.303 1577.23C193.845 1572.81 195.05 1568.7 196.919 1564.91C198.842 1561.15 201.417 1557.89 204.646 1555.14C207.92 1552.37 211.871 1550.48 216.499 1549.45L218.94 1562.14C215.974 1563.12 213.426 1564.47 211.295 1566.18C209.209 1567.88 207.528 1569.88 206.251 1572.16C205.018 1574.44 204.222 1576.94 203.863 1579.65C203.556 1582.4 203.696 1585.3 204.281 1588.34C204.746 1590.76 205.494 1593.08 206.523 1595.29C207.606 1597.54 208.95 1599.47 210.556 1601.06C212.207 1602.65 214.106 1603.83 216.255 1604.63C218.448 1605.41 220.887 1605.55 223.572 1605.03Z" fill="white"/>
<path d="M2016.54 740.5H1989.54V888.1L1961.64 916H1896.54V904H1920.54V762.4L1948.44 734.5L1920.54 706.6V565H1896.54V553H1961.64L1989.54 580.9V728.5H2016.54V740.5Z" fill="#1F2A41"/>
<path d="M849.544 706.6L821.644 734.5L849.544 762.4V904H873.544V916H808.444L780.544 888.1V740.5H753.544V728.5H780.544V580.9L808.444 553H873.544V565H849.544V706.6Z" fill="#1F2A41"/>
<path d="M1633.04 870.699C1633.04 906.141 1522.32 934.872 1385.74 934.872C1249.15 934.872 1139.85 906.141 1139.85 870.699C1139.85 835.257 1249.15 806.526 1385.74 806.526C1522.32 806.526 1633.04 835.257 1633.04 870.699Z" fill="#3D4B68"/>
<path d="M1172.67 637.792C1172.95 635.82 1174.64 634.354 1176.63 634.354H1592.07C1594.04 634.354 1595.71 635.782 1596.02 637.723L1633.01 869.199C1633.39 871.629 1631.52 873.83 1629.06 873.83H1143.75C1141.32 873.83 1139.45 871.676 1139.79 869.267L1172.67 637.792Z" fill="#3D4B68"/>
<rect x="1443.84" y="632.812" width="97.7867" height="276.178" fill="#43506C"/>
<rect x="1443.84" y="632.812" width="97.7867" height="276.178" fill="url(#paint0_linear)"/>
<path d="M1541.63 908.99H1443.84V922.67V923.39V931.362L1467.93 929.819L1492.73 926.733L1516.83 924.419L1541.63 919.79V908.99Z" fill="#43506C"/>
<path d="M1378.5 465L1836 618.68L1378.5 794.441L936.003 618.68L1378.5 465Z" fill="#28334A"/>
<path d="M1378.5 465L1836 618.68L1378.5 794.441L936.003 618.68L1378.5 465Z" fill="url(#paint1_linear)"/>
<path d="M1434.17 598.817L1676.32 680.308L1601.39 709.672L1368.41 626.007L1434.17 598.817Z" fill="#F65058"/>
<path d="M1682.32 836.835L1676.02 680.182L1600.18 707.885L1607.25 853.616L1647.88 868.631L1682.32 836.835Z" fill="#F65058"/>
<defs>
<linearGradient id="paint0_linear" x1="1685.47" y1="632.812" x2="1389.69" y2="864.09" gradientUnits="userSpaceOnUse">
<stop stop-color="#4E5A73"/>
<stop offset="1" stop-color="#3D4B68"/>
</linearGradient>
<linearGradient id="paint1_linear" x1="1720.3" y1="719.367" x2="1354.65" y2="602.782" gradientUnits="userSpaceOnUse">
<stop offset="0.346919" stop-color="#3F4B65"/>
<stop offset="0.998689" stop-color="#1F2A40"/>
</linearGradient>
</defs>
</svg>
