<svg width="126" height="53" viewBox="0 0 126 53" fill="none" xmlns="http://www.w3.org/2000/svg">
<ellipse cx="27.6121" cy="37.3269" rx="14.5281" ry="5.04549" fill="#344260"/>
<rect x="13.084" y="28.4972" width="29.0563" height="8.82961" fill="#344260"/>
<path d="M0 26.973L26.222 16.5774L55.4428 26.027L28.1559 36.6721L0 26.973Z" fill="#28334A"/>
<path d="M31.1913 23.0312L48.2131 28.6023L42.7921 30.5994L26.3124 25.2051L31.1913 23.0312Z" fill="#F65058"/>
<path d="M48.2746 36.2756L48.2746 28.5756L42.8693 30.3892L42.8693 38.1677L46.0444 41.4262L48.2746 36.2756Z" fill="#F65058"/>
<path d="M65.36 30.4021H58.76C58.82 31.2221 59.135 31.8871 59.705 
32.3971C60.275 32.8971 60.995 33.1471 61.865 33.1471C62.355 33.1471 
62.805 33.0621 63.215 32.8921C63.625 32.7121 63.98 32.4521 64.28 
32.1121L64.88 32.8021C64.53 33.2221 64.09 33.5421 63.56 33.7621C63.04 
33.9821 62.465 34.0921 61.835 34.0921C61.025 34.0921 60.305 33.9221 
59.675 33.5821C59.055 33.2321 58.57 32.7521 58.22 32.1421C57.87 31.5321 
57.695 30.8421 57.695 30.0721C57.695 29.3021 57.86 28.6121 58.19 28.0021C58.53 
27.3921 58.99 26.9171 59.57 26.5771C60.16 26.2371 60.82 26.0671 61.55 26.0671C62.28 26.0671 62.935 26.2371 63.515 26.5771C64.095 26.9171 64.55 27.3921 64.88 28.0021C65.21 28.6021 65.375 29.2921 65.375 30.0721L65.36 30.4021ZM61.55 26.9821C60.79 26.9821 60.15 27.2271 59.63 27.7171C59.12 28.1971 58.83 28.8271 58.76 29.6071H64.355C64.285 28.8271 63.99 28.1971 63.47 27.7171C62.96 27.2271 62.32 26.9821 61.55 26.9821ZM74.2928 22.8871V34.0171H73.2728V32.4571C72.9528 32.9871 72.5278 33.3921 71.9978 33.6721C71.4778 33.9521 70.8878 34.0921 70.2278 34.0921C69.4878 34.0921 68.8178 33.9221 68.2178 33.5821C67.6178 33.2421 67.1478 32.7671 66.8078 32.1571C66.4678 31.5471 66.2978 30.8521 66.2978 30.0721C66.2978 29.2921 66.4678 28.5971 66.8078 27.9871C67.1478 27.3771 67.6178 26.9071 68.2178 26.5771C68.8178 26.2371 69.4878 26.0671 70.2278 26.0671C70.8678 26.0671 71.4428 26.2021 71.9528 26.4721C72.4728 26.7321 72.8978 27.1171 73.2278 27.6271V22.8871H74.2928ZM70.3178 33.1471C70.8678 33.1471 71.3628 33.0221 71.8028 32.7721C72.2528 32.5121 72.6028 32.1471 72.8528 31.6771C73.1128 31.2071 73.2428 30.6721 73.2428 30.0721C73.2428 29.4721 73.1128 28.9371 72.8528 28.4671C72.6028 27.9971 72.2528 27.6371 71.8028 27.3871C71.3628 27.1271 70.8678 26.9971 70.3178 26.9971C69.7578 26.9971 69.2528 27.1271 68.8028 27.3871C68.3628 27.6371 68.0128 27.9971 67.7528 28.4671C67.5028 28.9371 67.3778 29.4721 67.3778 30.0721C67.3778 30.6721 67.5028 31.2071 67.7528 31.6771C68.0128 32.1471 68.3628 32.5121 68.8028 32.7721C69.2528 33.0221 69.7578 33.1471 70.3178 33.1471ZM83.9188 26.1271V34.0171H82.8988V32.5771C82.6188 33.0571 82.2338 33.4321 81.7438 33.7021C81.2538 33.9621 80.6938 34.0921 80.0638 34.0921C79.0338 34.0921 78.2188 33.8071 77.6188 33.2371C77.0288 32.6571 76.7338 31.8121 76.7338 30.7021V26.1271H77.7988V30.5971C77.7988 31.4271 78.0038 32.0571 78.4138 32.4871C78.8238 32.9171 79.4088 33.1321 80.1688 33.1321C80.9988 33.1321 81.6538 32.8821 82.1338 32.3821C82.6138 31.8721 82.8538 31.1671 82.8538 30.2671V26.1271H83.9188ZM95.7066 23.5171V34.0171H93.7566V29.5171H88.3266V34.0171H86.3766V23.5171H88.3266V27.8521H93.7566V23.5171H95.7066ZM101.4 25.9171C102.58 25.9171 103.48 26.2021 104.1 26.7721C104.73 27.3321 105.045 28.1821 105.045 29.3221V34.0171H103.275V33.0421C103.045 33.3921 102.715 33.6621 102.285 33.8521C101.865 34.0321 101.355 34.1221 100.755 34.1221C100.155 34.1221 99.6301 34.0221 99.1801 33.8221C98.7301 33.6121 98.3801 33.3271 98.1301 32.9671C97.8901 32.5971 97.7701 32.1821 97.7701 31.7221C97.7701 31.0021 98.0351 30.4271 98.5651 29.9971C99.1051 29.5571 99.9501 29.3371 101.1 29.3371H103.17V29.2171C103.17 28.6571 103 28.2271 102.66 27.9271C102.33 27.6271 101.835 27.4771 101.175 27.4771C100.725 27.4771 100.28 27.5471 99.8401 27.6871C99.4101 27.8271 99.0451 28.0221 98.7451 28.2721L98.0101 26.9071C98.4301 26.5871 98.9351 26.3421 99.5251 26.1721C100.115 26.0021 100.74 25.9171 101.4 25.9171ZM101.145 32.7571C101.615 32.7571 102.03 32.6521 102.39 32.4421C102.76 32.2221 103.02 31.9121 103.17 31.5121V30.5821H101.235C100.155 30.5821 99.6151 30.9371 99.6151 31.6471C99.6151 31.9871 99.7501 32.2571 100.02 32.4571C100.29 32.6571 100.665 32.7571 101.145 32.7571ZM111.2 34.1221C110.37 34.1221 109.625 33.9471 108.965 33.5971C108.305 33.2471 107.79 32.7621 107.42 32.1421C107.05 31.5121 106.865 30.8021 106.865 30.0121C106.865 29.2221 107.05 28.5171 107.42 27.8971C107.79 27.2771 108.3 26.7921 108.95 26.4421C109.61 26.0921 110.36 25.9171 111.2 25.9171C111.99 25.9171 112.68 26.0771 113.27 26.3971C113.87 26.7171 114.32 27.1771 114.62 27.7771L113.18 28.6171C112.95 28.2471 112.66 27.9721 112.31 27.7921C111.97 27.6021 111.595 27.5071 111.185 27.5071C110.485 27.5071 109.905 27.7371 109.445 28.1971C108.985 28.6471 108.755 29.2521 108.755 30.0121C108.755 30.7721 108.98 31.3821 109.43 31.8421C109.89 32.2921 110.475 32.5171 111.185 32.5171C111.595 32.5171 111.97 32.4271 112.31 32.2471C112.66 32.0571 112.95 31.7771 113.18 31.4071L114.62 32.2471C114.31 32.8471 113.855 33.3121 113.255 33.6421C112.665 33.9621 111.98 34.1221 111.2 34.1221ZM119.437 30.5821L118.042 31.9021V34.0171H116.167V22.8871H118.042V29.6071L121.927 26.0071H124.177L120.832 29.3671L124.492 34.0171H122.212L119.437 30.5821Z" fill="#28334A"/>
</svg>
